<?xml version="1.0" standalone="no"?><!DOCTYPE svg PUBLIC "-//W3C//DTD SVG 1.1//EN" "http://www.w3.org/Graphics/SVG/1.1/DTD/svg11.dtd"><svg t="1500574656234" class="icon" style="" viewBox="0 0 1080 1024" version="1.1" xmlns="http://www.w3.org/2000/svg" p-id="1117" xmlns:xlink="http://www.w3.org/1999/xlink" width="210.9375" height="200"><defs><style type="text/css"></style></defs><path d="M83.098744 692.581929H0V1024h415.359159v-83.340951H83.098744v-248.07712z m913.572163 248.07712H664.641934V1024h414.998539V692.581929h-82.969566v248.07712zM83.098744 83.098744H415.359159V0H0v331.418071h83.098744V83.098744zM0.118413 470.270318H1079.761577v83.340951H0.118413v-83.340951zM664.641934 0v83.098744h332.028973v248.319327h83.330186V0h-415.359159z" p-id="1118" fill="#ffffff"></path><path d="M779.289566 617.680568h73.590749v208.58113H779.289566v-208.58113zM337.440967 220.016021h36.847853v184.018586h-36.847853V220.016021z m282.287601 0h49.13047v184.018586H619.728568V220.016021z m159.560998 0h73.590749v184.018586H779.289566V220.016021z m-355.864893 0h24.446822v184.018586h-24.446822V220.016021z m73.585366 0h61.421162v184.018586H497.010039V220.016021z m-269.9996 0h73.695706v184.018586H227.010439V220.016021z m0 397.664547h73.695706v208.58113H227.010439v-208.58113z m392.718129 0h49.13047v208.58113H619.728568v-208.58113z m85.851837 0h24.559853v208.58113h-24.559853v-208.58113z m0-397.664547h24.559853v184.018586h-24.559853V220.016021zM337.440967 617.680568h36.847853v208.58113h-36.847853v-208.58113z m85.983706 0h24.446822v208.58113h-24.446822v-208.58113z m73.585366 0h61.421162v208.58113H497.010039v-208.58113z" p-id="1119" fill="#ffffff"></path></svg>